PathFileType	4	(X/Y/Z)	C:/Users/opensim2020/Desktop/walking_exp_matlab/subject01_walking07_straight_02.trc																																																																																																																															
DataRate	CameraRate	NumFrames	NumMarkers	Units	OrigDataRate	OrigDataStartFrame	OrigNumFrames																																																																																																																											
100	100	6	43	mm	100	1584	178																																																																																																																											
Frame#	Time	LFHD			RFHD			LBHD			RBHD			C7			T10			CLAV			STRN			RBAK			LSHO			LUPA			LELB			LFRM			LWRA			LWRB			LFIN			RSHO			RUPA			RELB			RFRM			RWRA			RWRB			RFIN			LASI			RASI			LPSI			RPSI			LTHI			LKNE			LTIB			LANK			LHEE			LTOE			RTHI			RKNE			RTIB			RANK			RHEE			RTOE			*39			*40			*41			*42		
		X1	Y1	Z1	X2	Y2	Z2	X3	Y3	Z3	X4	Y4	Z4	X5	Y5	Z5	X6	Y6	Z6	X7	Y7	Z7	X8	Y8	Z8	X9	Y9	Z9	X10	Y10	Z10	X11	Y11	Z11	X12	Y12	Z12	X13	Y13	Z13	X14	Y14	Z14	X15	Y15	Z15	X16	Y16	Z16	X17	Y17	Z17	X18	Y18	Z18	X19	Y19	Z19	X20	Y20	Z20	X21	Y21	Z21	X22	Y22	Z22	X23	Y23	Z23	X24	Y24	Z24	X25	Y25	Z25	X26	Y26	Z26	X27	Y27	Z27	X28	Y28	Z28	X29	Y29	Z29	X30	Y30	Z30	X31	Y31	Z31	X32	Y32	Z32	X33	Y33	Z33	X34	Y34	Z34	X35	Y35	Z35	X36	Y36	Z36	X37	Y37	Z37	X38	Y38	Z38	X39	Y39	Z39	X40	Y40	Z40	X41	Y41	Z41	X42	Y42	Z42	X43	Y43	Z43
																																																																																																																																		
156	1.55	533.95447	1659.68579	955.13361	579.58667	1669.37219	1060.33142	422.71918	1619.95044	1000.28925	468.29303	1630.36169	1111.67993	392.92346	1424.297	1046.4707	365.10382	1130.47144	1062.70947	539.55829	1362.05737	1030.75024	586.85345	1208.83972	1028.24719	352.49191	1233.31079	1136.47644	458.58655	1382.43054	876.67572	421.34058	1194.49182	801.61938	402.4032	1046.11816	810.28699	427.74045	935.38934	784.88934	492.13202	810.06885	804.68835	437.93646	813.38702	777.81958	473.96786	734.55737	775.73828	493.95007	1395.10864	1188.01672	451.81592	1198.34875	1300.66541	456.38553	1071.67139	1306.28967	505.01578	959.1933	1335.66687	605.85852	860.94379	1314.63501	562.93042	851.5282	1352.97485	614.34875	782.1615	1347.86182	541.28607	931.04285	945.33966	545.15588	925.86945	1163.23621	354.85202	936.30939	1000.83899	359.7569	935.30743	1145.92017	558.70483	603.93628	892.29132	575.97632	471.54971	912.63544	536.00769	284.43472	905.69672	522.77948	68.51269	962.58447	479.78564	38.85575	1016.36755	670.2641	31.71497	952.49841	505.02679	588.52338	1237.07727	504.80878	430.55539	1227.99707	351.79474	344.09372	1236.0686	191.6738	212.71335	1197.55151	143.73552	230.76294	1140.54553	210.72012	67.03824	1195.6156	562.19434	1702.32471	1039.57544	-1972.87317	1023.8728	3102.79028	-2013.19861	1022.46643	3138.08936	NaN	NaN	NaN
157	1.56	543.3399	1660.25586	953.17853	589.14435	1670.07239	1058.26575	432.17563	1620.59851	998.59082	477.97311	1631.08582	1109.83276	402.35419	1425.28662	1045.29797	374.33768	1131.28076	1060.62231	549.32983	1362.76563	1029.28479	596.22345	1209.37671	1026.77039	361.73203	1234.13538	1134.33435	468.37784	1383.04492	875.02667	432.46072	1195.41492	799.17731	414.61707	1046.4989	807.17706	442.44119	936.17218	781.24017	510.06351	812.58514	800.51794	455.71701	814.57568	773.9364	494.16476	736.59717	771.39716	503.52115	1395.57202	1186.37756	460.77084	1198.82471	1298.84473	464.51239	1072.20581	1304.25391	510.72061	958.98712	1333.88721	609.71204	858.49811	1312.82556	566.5423	850.07971	1351.24976	616.0943	779.26965	1345.68164	550.44427	931.3606	943.70587	554.24585	926.81006	1161.7981	363.88666	936.677	999.13647	368.84106	934.98474	1144.16272	564.42206	603.44257	890.8877	579.96021	470.80371	911.51465	538.5376	284.11087	904.88525	523.01801	68.69757	962.65192	479.88242	39.1182	1016.37732	670.50037	31.5308	952.56305	520.60101	589.98334	1235.08826	524.64862	432.2485	1226.51746	371.65738	346.26654	1234.48047	209.72664	217.48776	1195.83826	162.22736	233.65489	1137.59045	229.47765	71.95602	1197.96265	571.74261	1703.02856	1037.52283	-1973.13965	1023.9856	3102.11597	-2013.11499	1022.41382	3138.28906	NaN	NaN	NaN
158	1.57	552.66534	1660.73767	951.39111	598.7406	1670.68164	1056.25378	441.61334	1621.20129	997.00366	487.69656	1631.71851	1108.18103	412.18771	1425.7406	1042.40686	383.46921	1132.04102	1058.56079	558.70282	1363.15979	1027.81018	605.61176	1209.80078	1025.38989	370.83356	1234.89636	1132.1875	478.21603	1383.64441	873.50684	443.63138	1196.28882	797.12524	426.23718	1046.8623	803.90643	457.07953	937.09973	777.66382	528.10071	815.39923	796.36633	473.81305	815.80713	769.79626	514.25092	739.2525	766.88043	512.96051	1396.03101	1184.83057	469.50223	1199.16895	1296.97095	472.55902	1072.74146	1302.41382	516.4458	958.83264	1332.04346	613.45935	856.21222	1311.07983	570.10651	848.82648	1349.84265	617.89117	776.57471	1343.60083	559.44354	931.70026	942.0119	563.41254	927.71735	1160.35022	372.81915	937.00452	997.56482	377.95361	934.69598	1142.46887	570.19348	602.90826	889.61926	584.38318	470.13721	910.44855	541.64288	283.82156	904.29761	523.49951	68.73479	962.66284	480.06979	39.39746	1016.36676	670.79669	31.44818	952.62305	536.43457	591.67218	1233.8783	544.32367	434.37662	1224.91443	391.39252	348.64667	1232.97144	229.08754	220.73503	1193.94922	181.36804	235.65865	1135.14148	249.9968	75.74268	1200.0354	581.39429	1703.71655	1035.64697	-1973.19434	1023.99243	3102.2356	-2013.14819	1022.18677	3138.53979	NaN	NaN	NaN
159	1.58	562.03564	1661.32751	949.61371	608.33228	1671.23059	1054.46313	451.04614	1621.72852	995.59375	497.37079	1632.34546	1106.58264	421.28571	1426.57532	1041.94666	392.50015	1132.73792	1056.56604	568.2832	1363.54846	1026.48096	614.84644	1210.08765	1024.10803	379.93216	1235.60815	1130.10767	487.96594	1384.21619	872.05255	454.62177	1197.14722	795.10913	438.04456	1047.13257	800.72791	471.60089	938.13837	774.12402	546.1615	818.58405	792.21265	491.63528	817.43903	765.89423	534.62402	742.55695	762.09265	522.30573	1396.38293	1183.47498	478.0087	1199.44995	1295.12183	480.50574	1073.24585	1300.6189	522.21844	958.80139	1330.23254	617.20532	854.14862	1309.46472	573.80707	847.78552	1348.0636	619.74792	774.13586	1341.61682	568.69183	932.03345	940.08966	572.5116	928.57294	1158.7561	381.66888	937.22412	996.1792	386.98471	934.55536	1141.07153	576.00897	602.35138	888.58606	588.85577	469.44379	909.6358	544.89606	283.51096	903.78192	523.81323	68.86241	962.66187	480.21875	39.71414	1016.34802	671.03192	31.31764	952.70636	551.99139	593.45013	1232.05334	563.85376	436.70114	1223.27917	411.27957	350.75101	1231.00452	248.86845	223.08501	1192.6521	200.43874	236.11472	1133.27429	271.89847	78.7364	1201.81189	590.93964	1704.25623	1033.84338	-1973.18506	1024.02368	3101.76587	-2013.07092	1022.31909	3138.40112	NaN	NaN	NaN
160	1.59	571.42798	1661.78918	947.98193	617.91559	1671.70984	1052.81519	460.52704	1622.26343	994.2511	507.08112	1632.9353	1105.12927	430.67532	1427.14746	1040.33215	401.51331	1133.38025	1054.76917	577.76709	1363.89661	1025.2688	624.01831	1210.31055	1022.91772	388.95209	1236.22998	1128.14612	497.6221	1384.83386	870.7052	465.24811	1198.05566	793.27924	449.91724	1047.48291	797.68634	485.96136	939.35919	770.63104	564.05194	822.12231	788.13885	509.38705	819.46509	762.42914	554.79474	746.12262	757.45123	531.52313	1396.70825	1182.11584	486.33099	1199.7229	1293.3584	488.08075	1073.70142	1298.82922	527.85455	958.73895	1328.39465	620.97076	852.34094	1308.02686	577.38177	846.87036	1346.74341	621.68707	771.9939	1339.80688	576.53943	931.92889	938.50165	581.70001	929.39655	1157.0874	390.46185	937.44037	994.96313	396.10736	934.74396	1139.81311	581.84821	601.87506	887.64813	593.29688	468.76782	908.92615	547.95569	283.08429	903.27869	524.48346	68.97086	962.65613	480.38086	40.03848	1016.38525	671.21497	31.20486	952.88135	567.63635	595.19196	1230.38879	583.10638	439.10828	1221.58569	430.8627	353.01834	1228.97791	269.21835	223.99255	1191.60461	220.3172	235.34058	1132.04431	295.16202	80.74438	1203.13635	600.45325	1704.66699	1032.09424	-1973.05164	1023.91864	3102.37866	-2013.06787	1022.25983	3138.41431	NaN	NaN	NaN
161	1.6	580.87103	1662.18054	946.52869	627.58679	1672.16077	1051.27332	470.02798	1622.77039	993.02747	516.79303	1633.427	1103.70081	440.44199	1427.65637	1038.48804	410.45715	1134.01196	1053.06702	587.14941	1364.2207	1024.08667	633.05157	1210.52917	1021.75488	397.95731	1236.74939	1126.22449	507.2915	1385.3717	869.38934	475.62701	1198.81543	791.57111	461.38858	1047.94751	794.58948	500.18167	940.7132	767.21509	581.73395	825.90302	784.23871	527.13831	821.63232	758.82196	575.12909	749.89514	752.96515	540.61755	1397.12939	1180.94299	494.40918	1200.05078	1291.74268	495.31293	1074.11621	1297.00903	533.43408	958.94934	1326.93372	624.73297	850.87207	1306.61865	581.10413	846.19659	1345.354	623.82568	770.13251	1338.16199	585.33966	932.33301	936.50171	590.94684	930.20245	1155.2677	399.20227	937.6651	993.90955	405.38846	935.13904	1138.72144	587.68036	601.46021	886.82678	597.74591	468.09482	908.26031	550.89838	282.62473	902.77472	524.45563	69.11715	962.58362	480.43295	40.38673	1016.29486	671.41858	31.12995	952.88568	583.47174	596.79785	1228.87146	602.13055	441.44641	1219.87329	450.58405	354.61691	1227.09265	290.04468	223.74535	1190.79224	239.91785	233.25679	1131.32141	319.64908	81.67311	1203.96619	610.04425	1705.09851	1030.4563	-1973.05554	1024.1062	3102.24121	-2013.1864	1022.5686	3138.10718	NaN	NaN	NaN
